<mxfile host="app.diagrams.net" modified="2023-06-06T11:12:01.219Z" agent="Mozilla/5.0 (Windows NT 10.0; Win64; x64) AppleWebKit/537.36 (KHTML, like Gecko) Chrome/113.0.0.0 Safari/537.36" etag="Ymc8orlYZiXTHs3-r5Gs" version="21.2.3" type="github">
  <diagram id="R2lEEEUBdFMjLlhIrx00" name="Page-1">
    <mxGraphModel dx="1990" dy="960" grid="1" gridSize="10" guides="1" tooltips="1" connect="1" arrows="1" fold="1" page="1" pageScale="1" pageWidth="850" pageHeight="1100" math="0" shadow="0" extFonts="Permanent Marker^https://fonts.googleapis.com/css?family=Permanent+Marker">
      <root>
        <mxCell id="0" />
        <mxCell id="1" parent="0" />
        <mxCell id="cdEGZ-7qNYIHhvi8kMoW-1" value="Entity" style="swimlane;childLayout=stackLayout;horizontal=1;startSize=50;horizontalStack=0;rounded=1;fontSize=14;fontStyle=0;strokeWidth=2;resizeParent=0;resizeLast=1;shadow=0;dashed=0;align=center;arcSize=4;whiteSpace=wrap;html=1;" parent="1" vertex="1">
          <mxGeometry x="570" y="10" width="160" height="120" as="geometry" />
        </mxCell>
        <mxCell id="cdEGZ-7qNYIHhvi8kMoW-2" value="+ Image&lt;br&gt;+Shape" style="align=left;strokeColor=none;fillColor=none;spacingLeft=4;fontSize=12;verticalAlign=top;resizable=0;rotatable=0;part=1;html=1;" parent="cdEGZ-7qNYIHhvi8kMoW-1" vertex="1">
          <mxGeometry y="50" width="160" height="70" as="geometry" />
        </mxCell>
        <mxCell id="cdEGZ-7qNYIHhvi8kMoW-4" value="Player" style="swimlane;childLayout=stackLayout;horizontal=1;startSize=50;horizontalStack=0;rounded=1;fontSize=14;fontStyle=0;strokeWidth=2;resizeParent=0;resizeLast=1;shadow=0;dashed=0;align=center;arcSize=4;whiteSpace=wrap;html=1;" parent="1" vertex="1">
          <mxGeometry x="330" y="10" width="160" height="120" as="geometry" />
        </mxCell>
        <mxCell id="cdEGZ-7qNYIHhvi8kMoW-5" value="+ Entity&lt;br&gt;+ DynamicShape" style="align=left;strokeColor=none;fillColor=none;spacingLeft=4;fontSize=12;verticalAlign=top;resizable=0;rotatable=0;part=1;html=1;" parent="cdEGZ-7qNYIHhvi8kMoW-4" vertex="1">
          <mxGeometry y="50" width="160" height="70" as="geometry" />
        </mxCell>
        <mxCell id="cdEGZ-7qNYIHhvi8kMoW-6" value="Block" style="swimlane;childLayout=stackLayout;horizontal=1;startSize=50;horizontalStack=0;rounded=1;fontSize=14;fontStyle=0;strokeWidth=2;resizeParent=0;resizeLast=1;shadow=0;dashed=0;align=center;arcSize=4;whiteSpace=wrap;html=1;" parent="1" vertex="1">
          <mxGeometry x="340" y="230" width="160" height="120" as="geometry" />
        </mxCell>
        <mxCell id="cdEGZ-7qNYIHhvi8kMoW-7" value="+shape&lt;br&gt;+hp&lt;br&gt;+name&lt;br&gt;+ value" style="align=left;strokeColor=none;fillColor=none;spacingLeft=4;fontSize=12;verticalAlign=top;resizable=0;rotatable=0;part=1;html=1;" parent="cdEGZ-7qNYIHhvi8kMoW-6" vertex="1">
          <mxGeometry y="50" width="160" height="70" as="geometry" />
        </mxCell>
        <mxCell id="cdEGZ-7qNYIHhvi8kMoW-8" value="Ball" style="swimlane;childLayout=stackLayout;horizontal=1;startSize=50;horizontalStack=0;rounded=1;fontSize=14;fontStyle=0;strokeWidth=2;resizeParent=0;resizeLast=1;shadow=0;dashed=0;align=center;arcSize=4;whiteSpace=wrap;html=1;" parent="1" vertex="1">
          <mxGeometry x="570" y="220" width="160" height="120" as="geometry" />
        </mxCell>
        <mxCell id="cdEGZ-7qNYIHhvi8kMoW-9" value="+ isSubsribec&lt;br&gt;+ isLive&lt;br&gt;+ Dynamic shape" style="align=left;strokeColor=none;fillColor=none;spacingLeft=4;fontSize=12;verticalAlign=top;resizable=0;rotatable=0;part=1;html=1;" parent="cdEGZ-7qNYIHhvi8kMoW-8" vertex="1">
          <mxGeometry y="50" width="160" height="70" as="geometry" />
        </mxCell>
        <mxCell id="cdEGZ-7qNYIHhvi8kMoW-10" value="PowerUp" style="swimlane;childLayout=stackLayout;horizontal=1;startSize=50;horizontalStack=0;rounded=1;fontSize=14;fontStyle=0;strokeWidth=2;resizeParent=0;resizeLast=1;shadow=0;dashed=0;align=center;arcSize=4;whiteSpace=wrap;html=1;" parent="1" vertex="1">
          <mxGeometry x="790" y="220" width="160" height="140" as="geometry" />
        </mxCell>
        <mxCell id="cdEGZ-7qNYIHhvi8kMoW-11" value="+ Duration&lt;br&gt;+ startTime&lt;br&gt;+ activate&lt;br&gt;+ effect&lt;br&gt;Â´+ Deactivate" style="align=left;strokeColor=none;fillColor=none;spacingLeft=4;fontSize=12;verticalAlign=top;resizable=0;rotatable=0;part=1;html=1;" parent="cdEGZ-7qNYIHhvi8kMoW-10" vertex="1">
          <mxGeometry y="50" width="160" height="90" as="geometry" />
        </mxCell>
        <mxCell id="cdEGZ-7qNYIHhvi8kMoW-14" style="edgeStyle=orthogonalEdgeStyle;rounded=0;orthogonalLoop=1;jettySize=auto;html=1;" parent="1" source="cdEGZ-7qNYIHhvi8kMoW-2" target="cdEGZ-7qNYIHhvi8kMoW-6" edge="1">
          <mxGeometry relative="1" as="geometry">
            <Array as="points">
              <mxPoint x="650" y="170" />
              <mxPoint x="420" y="170" />
            </Array>
          </mxGeometry>
        </mxCell>
        <mxCell id="cdEGZ-7qNYIHhvi8kMoW-15" style="edgeStyle=orthogonalEdgeStyle;rounded=0;orthogonalLoop=1;jettySize=auto;html=1;" parent="1" source="cdEGZ-7qNYIHhvi8kMoW-2" target="cdEGZ-7qNYIHhvi8kMoW-8" edge="1">
          <mxGeometry relative="1" as="geometry">
            <Array as="points">
              <mxPoint x="650" y="190" />
              <mxPoint x="650" y="190" />
            </Array>
          </mxGeometry>
        </mxCell>
        <mxCell id="cdEGZ-7qNYIHhvi8kMoW-16" style="edgeStyle=orthogonalEdgeStyle;rounded=0;orthogonalLoop=1;jettySize=auto;html=1;entryX=0.5;entryY=0;entryDx=0;entryDy=0;" parent="1" source="cdEGZ-7qNYIHhvi8kMoW-2" target="cdEGZ-7qNYIHhvi8kMoW-10" edge="1">
          <mxGeometry relative="1" as="geometry">
            <Array as="points">
              <mxPoint x="650" y="170" />
              <mxPoint x="870" y="170" />
            </Array>
          </mxGeometry>
        </mxCell>
        <mxCell id="cdEGZ-7qNYIHhvi8kMoW-18" value="Hardened" style="swimlane;childLayout=stackLayout;horizontal=1;startSize=50;horizontalStack=0;rounded=1;fontSize=14;fontStyle=0;strokeWidth=2;resizeParent=0;resizeLast=1;shadow=0;dashed=0;align=center;arcSize=4;whiteSpace=wrap;html=1;" parent="1" vertex="1">
          <mxGeometry x="310" y="430" width="160" height="60" as="geometry" />
        </mxCell>
        <mxCell id="cdEGZ-7qNYIHhvi8kMoW-20" value="PowerUp" style="swimlane;childLayout=stackLayout;horizontal=1;startSize=50;horizontalStack=0;rounded=1;fontSize=14;fontStyle=0;strokeWidth=2;resizeParent=0;resizeLast=1;shadow=0;dashed=0;align=center;arcSize=4;whiteSpace=wrap;html=1;" parent="1" vertex="1">
          <mxGeometry x="680" y="430" width="160" height="80" as="geometry" />
        </mxCell>
        <mxCell id="cdEGZ-7qNYIHhvi8kMoW-21" value="+ PowerUpType" style="align=left;strokeColor=none;fillColor=none;spacingLeft=4;fontSize=12;verticalAlign=top;resizable=0;rotatable=0;part=1;html=1;" parent="cdEGZ-7qNYIHhvi8kMoW-20" vertex="1">
          <mxGeometry y="50" width="160" height="30" as="geometry" />
        </mxCell>
        <mxCell id="cdEGZ-7qNYIHhvi8kMoW-22" value="Unbreakable" style="swimlane;childLayout=stackLayout;horizontal=1;startSize=50;horizontalStack=0;rounded=1;fontSize=14;fontStyle=0;strokeWidth=2;resizeParent=0;resizeLast=1;shadow=0;dashed=0;align=center;arcSize=4;whiteSpace=wrap;html=1;" parent="1" vertex="1">
          <mxGeometry x="500" y="430" width="160" height="60" as="geometry" />
        </mxCell>
        <mxCell id="cdEGZ-7qNYIHhvi8kMoW-24" style="edgeStyle=orthogonalEdgeStyle;rounded=0;orthogonalLoop=1;jettySize=auto;html=1;entryX=0.5;entryY=0;entryDx=0;entryDy=0;" parent="1" source="cdEGZ-7qNYIHhvi8kMoW-7" target="cdEGZ-7qNYIHhvi8kMoW-18" edge="1">
          <mxGeometry relative="1" as="geometry">
            <Array as="points">
              <mxPoint x="420" y="390" />
              <mxPoint x="390" y="390" />
            </Array>
          </mxGeometry>
        </mxCell>
        <mxCell id="cdEGZ-7qNYIHhvi8kMoW-25" style="edgeStyle=orthogonalEdgeStyle;rounded=0;orthogonalLoop=1;jettySize=auto;html=1;" parent="1" source="cdEGZ-7qNYIHhvi8kMoW-7" target="cdEGZ-7qNYIHhvi8kMoW-22" edge="1">
          <mxGeometry relative="1" as="geometry" />
        </mxCell>
        <mxCell id="cdEGZ-7qNYIHhvi8kMoW-26" style="edgeStyle=orthogonalEdgeStyle;rounded=0;orthogonalLoop=1;jettySize=auto;html=1;entryX=0.5;entryY=0;entryDx=0;entryDy=0;" parent="1" source="cdEGZ-7qNYIHhvi8kMoW-7" target="cdEGZ-7qNYIHhvi8kMoW-20" edge="1">
          <mxGeometry relative="1" as="geometry">
            <Array as="points">
              <mxPoint x="420" y="390" />
              <mxPoint x="760" y="390" />
            </Array>
          </mxGeometry>
        </mxCell>
        <mxCell id="cdEGZ-7qNYIHhvi8kMoW-27" value="Split" style="swimlane;childLayout=stackLayout;horizontal=1;startSize=50;horizontalStack=0;rounded=1;fontSize=14;fontStyle=0;strokeWidth=2;resizeParent=0;resizeLast=1;shadow=0;dashed=0;align=center;arcSize=4;whiteSpace=wrap;html=1;" parent="1" vertex="1">
          <mxGeometry x="330" y="590" width="160" height="60" as="geometry" />
        </mxCell>
        <mxCell id="cdEGZ-7qNYIHhvi8kMoW-29" value="Wide" style="swimlane;childLayout=stackLayout;horizontal=1;startSize=50;horizontalStack=0;rounded=1;fontSize=14;fontStyle=0;strokeWidth=2;resizeParent=0;resizeLast=1;shadow=0;dashed=0;align=center;arcSize=4;whiteSpace=wrap;html=1;" parent="1" vertex="1">
          <mxGeometry x="670" y="590" width="160" height="60" as="geometry" />
        </mxCell>
        <mxCell id="cdEGZ-7qNYIHhvi8kMoW-31" value="Time" style="swimlane;childLayout=stackLayout;horizontal=1;startSize=50;horizontalStack=0;rounded=1;fontSize=14;fontStyle=0;strokeWidth=2;resizeParent=0;resizeLast=1;shadow=0;dashed=0;align=center;arcSize=4;whiteSpace=wrap;html=1;" parent="1" vertex="1">
          <mxGeometry x="500" y="590" width="160" height="60" as="geometry" />
        </mxCell>
        <mxCell id="cdEGZ-7qNYIHhvi8kMoW-33" style="edgeStyle=orthogonalEdgeStyle;rounded=0;orthogonalLoop=1;jettySize=auto;html=1;entryX=0.5;entryY=0;entryDx=0;entryDy=0;" parent="1" source="cdEGZ-7qNYIHhvi8kMoW-11" target="cdEGZ-7qNYIHhvi8kMoW-31" edge="1">
          <mxGeometry relative="1" as="geometry">
            <Array as="points">
              <mxPoint x="870" y="540" />
              <mxPoint x="580" y="540" />
            </Array>
          </mxGeometry>
        </mxCell>
        <mxCell id="cdEGZ-7qNYIHhvi8kMoW-34" style="edgeStyle=orthogonalEdgeStyle;rounded=0;orthogonalLoop=1;jettySize=auto;html=1;entryX=0.5;entryY=0;entryDx=0;entryDy=0;" parent="1" source="cdEGZ-7qNYIHhvi8kMoW-11" target="cdEGZ-7qNYIHhvi8kMoW-29" edge="1">
          <mxGeometry relative="1" as="geometry">
            <Array as="points">
              <mxPoint x="870" y="540" />
              <mxPoint x="750" y="540" />
            </Array>
          </mxGeometry>
        </mxCell>
        <mxCell id="cdEGZ-7qNYIHhvi8kMoW-35" style="edgeStyle=orthogonalEdgeStyle;rounded=0;orthogonalLoop=1;jettySize=auto;html=1;entryX=0.5;entryY=0;entryDx=0;entryDy=0;" parent="1" source="cdEGZ-7qNYIHhvi8kMoW-11" target="cdEGZ-7qNYIHhvi8kMoW-27" edge="1">
          <mxGeometry relative="1" as="geometry">
            <Array as="points">
              <mxPoint x="870" y="540" />
              <mxPoint x="410" y="540" />
            </Array>
          </mxGeometry>
        </mxCell>
        <mxCell id="cdEGZ-7qNYIHhvi8kMoW-36" value="Life" style="swimlane;childLayout=stackLayout;horizontal=1;startSize=50;horizontalStack=0;rounded=1;fontSize=14;fontStyle=0;strokeWidth=2;resizeParent=0;resizeLast=1;shadow=0;dashed=0;align=center;arcSize=4;whiteSpace=wrap;html=1;" parent="1" vertex="1">
          <mxGeometry x="840" y="590" width="160" height="60" as="geometry" />
        </mxCell>
        <mxCell id="cdEGZ-7qNYIHhvi8kMoW-38" style="edgeStyle=orthogonalEdgeStyle;rounded=0;orthogonalLoop=1;jettySize=auto;html=1;entryX=0.5;entryY=0;entryDx=0;entryDy=0;" parent="1" source="cdEGZ-7qNYIHhvi8kMoW-11" target="cdEGZ-7qNYIHhvi8kMoW-36" edge="1">
          <mxGeometry relative="1" as="geometry">
            <Array as="points">
              <mxPoint x="870" y="540" />
              <mxPoint x="920" y="540" />
            </Array>
          </mxGeometry>
        </mxCell>
      </root>
    </mxGraphModel>
  </diagram>
</mxfile>
